# xmcd
#
# Track frame offsets:
#	150
#	16875
#	29427
#	61578
#	66313
#	76131
#	91305
#	111510
#	126207
#	144551
#	173449
#	200380
#	220695
#	227012
#	243798
#	263987
#	300416
#	309954
#	330181
#
# Disc length: 4428 seconds
#
# Revision: 0
# Processed by: cddbd v1.5.1PL2 Copyright (c) Steve Scherf et al.
# Submitted via: EasyCDDAExtractor 9.0.0.1
#
DISCID=ee114a13
DTITLE=Various Artist - Son Of Arctic Hysteria
DYEAR=2006
DGENRE=Avantgarde
TTITLE0=Kollaa Kest‰‰ - T‰htien Rauha
TTITLE1=Aavikon Kone Ja Moottori - Rakkaudella Sinulle
TTITLE2=Kari Peitsamo - Puinen Koira
TTITLE3=Yhtye - Apatian Tanssi
TTITLE4=Silver - Do You Wanna Dance
TTITLE5=Hefty Load - Schrecklich
TTITLE6=Vaaralliset Lelut - Alkuasukkaien L‰‰kkeet
TTITLE7=Jaakko Kangasj‰rvi - Musiikki Ja Urheilu
TTITLE8=Tapa Paha Tapa - I Love It
TTITLE9=Swissair - Baggage Claim
TTITLE10=Harri Tuominen - Lippukunta
TTITLE11=Suomen Poliisit - Mihin Sie Meet Keijo
TTITLE12=Kansanturvamusiikkikomissio - Kalinka
TTITLE13=Joan Bennett Museo - Empty Faces
TTITLE14=500 Kg Lihaa - Pallokent‰ll‰
TTITLE15=Super Ladex - Olet Valloissasi
TTITLE16=Gagarin-Kombinaatti - Raskas
TTITLE17=Jimi Tenor and His Shamans - Le Petomane (380v)
TTITLE18=Reinin Myrkky - Snorkkelijenkka
EXTD=
EXTT0=
EXTT1=
EXTT2=
EXTT3=
EXTT4=
EXTT5=
EXTT6=
EXTT7=
EXTT8=
EXTT9=
EXTT10=
EXTT11=
EXTT12=
EXTT13=
EXTT14=
EXTT15=
EXTT16=
EXTT17=
EXTT18=
PLAYORDER=
